<mxfile host="app.diagrams.net" modified="2024-02-03T14:33:59.780Z" agent="Mozilla/5.0 (Windows NT 10.0; Win64; x64; rv:123.0) Gecko/20100101 Firefox/123.0" version="22.1.19" etag="afUjagBGZcUnsT7OBH84" type="github">
  <diagram name="Page-1" id="L_vTFbnhlQPMuo9P5prP">
    <mxGraphModel>
      <root>
        <mxCell id="0" />
        <mxCell id="1" parent="0" />
      </root>
    </mxGraphModel>
  </diagram>
</mxfile>
